{"title":"Sint 2010 DVDrip Dutch Klam","uid":6729238,"size":1524878408,"categoryP":"video","categoryS":"movies","magnet":"?xt=urn:btih:48033ea23064ea73e9c2065e21edbfc2e821192e&amp;dn=Sint+2010+DVDrip+Dutch+Klam&amp;tr=udp%3A%2F%2Ftracker.openbittorrent.com%3A80&amp;tr=udp%3A%2F%2Fopen.demonii.com%3A1337&amp;tr=udp%3A%2F%2Ftracker.coppersurfer.tk%3A6969&amp;tr=udp%3A%2F%2Fexodus.desync.com%3A6969","seeders":1,"leechers":0,"uploader":"Klambake","files":-1,"time":1318068838,"description":"With: Huub Stapel, Bert Luppes en Egbert-Jan Weeber\n\nSt. Niklas (Huub Stapel) is een in ongenade gevallen bisschop. Hij trekt in de middeleeuwen samen met zijn roversbende plunderend en brandschattend over het platteland. Als dorpelingen het recht in eigen hand nemen en de bloeddorstige Sint en zijn trawanten vermoorden, zweert Niklas wraak. Iedere keer bij volle maan op 5 december herrijzen Niklas en zijn bende uit de dood om zich te wreken. Deze sinterklaasavond is het volle maan. Frank (Egbert-Jan Weeber) en zijn vrienden worden op gruwelijke wijze geconfronteerd met Niklas en zijn bende. Frank weet ternauwernood aan de moordpartij te ontkomen. De politie gelooft zijn verhaal echter niet en ziet hem als verdachte. Frank bindt hierop de strijd aan met Niklas, geholpen door zijn vriendin Lisa (Caro Lenssen) en Goert (Bert Luppes), een rechercheur van politie. Er volgt een bloedstollende nachtelijke strijd dwars door Amsterdam waarbij maar ÃƒÂ©ÃƒÂ©n ding zeker is: 5 december zal nooit meer hetzelfde zijn...\n\nA horror film that depicts St. Nicholas as a murderous bishop who kidnaps and murders children when there is a full moon on December 5. \n\n------------------ Dutch Friends ------------------\nYou can find my Friends at: http://www.Film-Test.nl \n------ They got my dutch subs ----- and more ------\n\nGeneral:\n\nComplete name                    : The Sint\\The Sint.avi\nFormat                           : AVI\nFormat/Info                      : Audio Video Interleave\nFile size                        : 1.42 GiB\nDuration                         : 1h 24mn\nOverall bit rate                 : 2 412 Kbps\n\nVideo:\n\nFormat                           : MPEG-4 Visual\nFormat profile                   : Simple@L3\nFormat settings, BVOP            : No\nFormat settings, QPel            : No\nFormat settings, GMC             : No warppoints\nFormat settings, Matrix          : Default (H.263)\nCodec ID                         : XVID\nCodec ID/Hint                    : XviD\nDuration                         : 1h 24mn\nBit rate                         : 1 953 Kbps\nWidth                            : 720 pixels\nHeight                           : 304 pixels\nDisplay aspect ratio             : 2.35:1\nFrame rate                       : 25.000 fps\nColor space                      : YUV\nChroma subsampling               : 4:2:0\nBit depth                        : 8 bits\nScan type                        : Progressive\nCompression mode                 : Lossy\nBits/(Pixel*Frame)               : 0.357\nStream size                      : 1.15 GiB (81%)\nWriting library                  : XviD 1.1.2 (UTC 2006-11-01)\n\nAudio:\n\nFormat                           : AC-3\nFormat/Info                      : Audio Coding 3\nMode extension                   : CM (complete main)\nCodec ID                         : 2000\nDuration                         : 1h 24mn\nBit rate mode                    : Constant\nBit rate                         : 448 Kbps\nChannel(s)                       : 6 channels\nChannel positions                : Front: L C R, Side: L R, LFE\nSampling rate                    : 48.0 KHz\nBit depth                        : 16 bits\nCompression mode                 : Lossy\nStream size                      : 270 MiB (19%)\nAlignment                        : Aligned on interleaves\nInterleave, duration             : 32 ms (0.80 video frame)\nInterleave, preload duration     : 64 ms\n\n","torrent":{"xt":"urn:btih:48033ea23064ea73e9c2065e21edbfc2e821192e","amp;dn":"Sint+2010+DVDrip+Dutch+Klam","amp;tr":["udp%3A%2F%2Ftracker.openbittorrent.com%3A80","udp%3A%2F%2Fopen.demonii.com%3A1337","udp%3A%2F%2Ftracker.coppersurfer.tk%3A6969","udp%3A%2F%2Fexodus.desync.com%3A6969"],"infoHash":"48033ea23064ea73e9c2065e21edbfc2e821192e","infoHashBuffer":{"type":"Buffer","data":[72,3,62,162,48,100,234,115,233,194,6,94,33,237,191,194,232,33,25,46]},"announce":[],"urlList":[]}}